<svg width="24" height="23" viewBox="0 0 24 23" fill="none" xmlns="http://www.w3.org/2000/svg">
<path d="M8.90234 22C9.45463 22 9.90234 21.5523 9.90234 21C9.90234 20.4477 9.45463 20 8.90234 20C8.35006 20 7.90234 20.4477 7.90234 21C7.90234 21.5523 8.35006 22 8.90234 22Z" stroke="#223756" stroke-width="2" stroke-linecap="round" stroke-linejoin="round"/>
<path d="M19.9023 22C20.4546 22 20.9023 21.5523 20.9023 21C20.9023 20.4477 20.4546 20 19.9023 20C19.3501 20 18.9023 20.4477 18.9023 21C18.9023 21.5523 19.3501 22 19.9023 22Z" stroke="#223756" stroke-width="2" stroke-linecap="round" stroke-linejoin="round"/>
<path d="M1 1H5L7.68 14.39C7.77144 14.8504 8.02191 15.264 8.38755 15.5583C8.75318 15.8526 9.2107 16.009 9.68 16H19.4C19.8693 16.009 20.3268 15.8526 20.6925 15.5583C21.0581 15.264 21.3086 14.8504 21.4 14.39L23 6H6" stroke="#223756" stroke-width="2" stroke-linecap="round" stroke-linejoin="round"/>
</svg>
